<?xml version="1.0" encoding="UTF-8"?>
<svg xmlns="http://www.w3.org/2000/svg" xmlns:xlink="http://www.w3.org/1999/xlink" width="375pt" height="149.999998pt" viewBox="0 0 375 149.999998" version="1.2">
<defs>
<clipPath id="clip1">
  <path d="M 17.335938 13.816406 L 156 13.816406 L 156 60 L 17.335938 60 Z M 17.335938 13.816406 "/>
</clipPath>
<clipPath id="clip2">
  <path d="M 32 27 L 141 27 L 141 141.945312 L 32 141.945312 Z M 32 27 "/>
</clipPath>
</defs>
<g id="surface1">
<path style="fill:none;stroke-width:1.773333;stroke-linecap:butt;stroke-linejoin:miter;stroke:rgb(0%,0%,0%);stroke-opacity:1;stroke-miterlimit:4;" d="M 29.489198 67.60123 C 25.804991 67.60123 22.566932 66.879725 19.771535 65.433229 C 16.990081 63.986733 14.825565 61.944212 13.28496 59.30915 C 11.74087 56.670602 10.967082 53.610305 10.967082 50.121288 L 10.967082 31.529461 C 10.967082 28.054386 11.74087 25.011517 13.28496 22.397368 C 14.825565 19.783219 16.990081 17.75464 19.771535 16.308144 C 22.566932 14.861648 25.804991 14.140143 29.489198 14.140143 C 33.121122 14.140143 36.327811 14.851192 39.112751 16.273289 C 41.908147 17.695386 44.076148 19.650769 45.620239 22.142924 C 47.160844 24.621137 47.934632 27.426991 47.934632 30.563969 L 47.934632 31.839674 C 47.934632 32.17777 47.830066 32.453127 47.624419 32.658774 C 47.42923 32.853963 47.157358 32.951558 46.805319 32.951558 L 35.01028 32.951558 C 34.672183 32.951558 34.396826 32.853963 34.19118 32.658774 C 33.99599 32.453127 33.898395 32.17777 33.898395 31.839674 L 33.898395 30.710361 C 33.898395 29.420715 33.497559 28.3402 32.695887 27.465331 C 31.904671 26.590463 30.838098 26.151286 29.489198 26.151286 C 28.150753 26.151286 27.070239 26.625318 26.244168 27.573383 C 25.418096 28.521447 25.003318 29.765782 25.003318 31.309873 L 25.003318 50.358304 C 25.003318 51.902395 25.466894 53.160672 26.39056 54.129649 C 27.314226 55.091656 28.450509 55.57266 29.795924 55.57266 C 31.036774 55.57266 32.051063 55.175309 32.842279 54.387579 C 33.643951 53.585906 34.044788 52.491449 34.044788 51.104208 L 34.044788 48.863011 C 34.044788 48.55977 33.891424 48.406406 33.588183 48.406406 L 30.088709 48.406406 C 29.73667 48.406406 29.464799 48.312297 29.269609 48.117107 C 29.074419 47.907975 28.976824 47.636104 28.976824 47.294522 L 28.976824 38.472641 C 28.976824 38.134544 29.074419 37.866158 29.269609 37.670968 C 29.464799 37.465322 29.73667 37.360756 30.088709 37.360756 L 46.805319 37.360756 C 47.157358 37.360756 47.42923 37.465322 47.624419 37.670968 C 47.830066 37.866158 47.934632 38.134544 47.934632 38.472641 L 47.934632 50.504696 C 47.934632 53.882177 47.160844 56.865792 45.620239 59.452056 C 44.076148 62.041806 41.908147 64.045987 39.112751 65.468084 C 36.327811 66.890181 33.121122 67.60123 29.489198 67.60123 Z M 70.395398 67.747622 C 66.662394 67.747622 63.375537 67.001718 60.531343 65.506425 C 57.701092 64.011132 55.515663 61.909356 53.971573 59.197613 C 52.427482 56.489354 51.65718 53.341919 51.65718 49.755307 L 51.65718 31.986066 C 51.65718 28.399454 52.427482 25.265961 53.971573 22.578616 C 55.515663 19.894756 57.701092 17.817379 60.531343 16.346485 C 63.375537 14.875591 66.662394 14.140143 70.395398 14.140143 C 74.135374 14.140143 77.436173 14.875591 80.290823 16.346485 C 83.159416 17.817379 85.365757 19.894756 86.909848 22.578616 C 88.450453 25.265961 89.224241 28.399454 89.224241 31.986066 L 89.224241 49.755307 C 89.224241 53.341919 88.439996 56.489354 86.871507 59.197613 C 85.303018 61.909356 83.100162 64.011132 80.255968 65.506425 C 77.42223 67.001718 74.135374 67.747622 70.395398 67.747622 Z M 70.395398 55.73648 C 71.841894 55.73648 72.999091 55.238048 73.873959 54.241186 C 74.748828 53.244324 75.188005 51.919822 75.188005 50.26768 L 75.188005 31.602658 C 75.188005 29.960972 74.748828 28.643441 73.873959 27.646579 C 72.999091 26.649717 71.841894 26.151286 70.395398 26.151286 C 69.008157 26.151286 67.878844 26.649717 67.003976 27.646579 C 66.129108 28.643441 65.689931 29.960972 65.689931 31.602658 L 65.689931 50.26768 C 65.689931 51.919822 66.129108 53.244324 67.003976 54.241186 C 67.878844 55.238048 69.008157 55.73648 70.395398 55.73648 Z M 111.678037 67.747622 C 107.948518 67.747622 104.661661 67.001718 101.817467 65.506425 C 98.987215 64.011132 96.798302 61.909356 95.257696 59.197613 C 93.713606 56.489354 92.939818 53.341919 92.939818 49.755307 L 92.939818 31.986066 C 92.939818 28.399454 93.713606 25.265961 95.257696 22.578616 C 96.798302 19.894756 98.987215 17.817379 101.817467 16.346485 C 104.661661 14.875591 107.948518 14.140143 111.678037 14.140143 C 115.421498 14.140143 118.722296 14.875591 121.576947 16.346485 C 124.445539 17.817379 126.648396 19.894756 128.192486 22.578616 C 129.736577 25.265961 130.506879 28.399454 130.506879 31.986066 L 130.506879 49.755307 C 130.506879 53.341919 129.722635 56.489354 128.157631 59.197613 C 126.589142 61.909356 124.3828 64.011132 121.538606 65.506425 C 118.708354 67.001718 115.421498 67.747622 111.678037 67.747622 Z M 111.678037 55.73648 C 113.124532 55.73648 114.285214 55.238048 115.160083 54.241186 C 116.034951 53.244324 116.474128 51.919822 116.474128 50.26768 L 116.474128 31.602658 C 116.474128 29.960972 116.034951 28.643441 115.160083 27.646579 C 114.285214 26.649717 113.124532 26.151286 111.678037 26.151286 C 110.294281 26.151286 109.164968 26.649717 108.2901 27.646579 C 107.415231 28.643441 106.976054 29.960972 106.976054 31.602658 L 106.976054 50.26768 C 106.976054 51.919822 107.415231 53.244324 108.2901 54.241186 C 109.164968 55.238048 110.294281 55.73648 111.678037 55.73648 Z M 135.958251 67.001718 C 135.606212 67.001718 135.32737 66.904123 135.118238 66.708933 C 134.923048 66.503287 134.828939 66.22793 134.828939 65.889834 L 134.828939 15.855025 C 134.828939 15.513443 134.923048 15.245057 135.118238 15.049867 C 135.32737 14.844221 135.606212 14.74314 135.958251 14.74314 L 152.890964 14.74314 C 156.585628 14.74314 159.823687 15.405391 162.605141 16.729894 C 165.390081 18.040453 167.551111 19.894756 169.095201 22.289317 C 170.639292 24.669935 171.409594 27.426991 171.409594 30.563969 L 171.409594 51.104208 C 171.409594 54.241186 170.639292 57.01567 169.095201 59.434629 C 167.551111 61.843131 165.390081 63.707891 162.605141 65.032393 C 159.823687 66.342953 156.585628 67.001718 152.890964 67.001718 Z M 148.861689 54.533971 C 148.861689 54.837212 149.015053 54.98709 149.318294 54.98709 L 152.96416 54.896466 C 154.215466 54.896466 155.247184 54.405006 156.062798 53.422086 C 156.888869 52.425224 157.328046 51.100722 157.373358 49.44858 L 157.373358 32.202169 C 157.373358 30.563969 156.962065 29.242953 156.135994 28.249576 C 155.32038 27.252714 154.239865 26.754283 152.890964 26.754283 L 149.318294 26.754283 C 149.015053 26.754283 148.861689 26.904161 148.861689 27.210888 Z M 148.861689 54.533971 " transform="matrix(1.120704,0,0,1.120704,152.986489,8.367926)"/>
<path style="fill:none;stroke-width:1.33;stroke-linecap:butt;stroke-linejoin:miter;stroke:rgb(0%,0%,0%);stroke-opacity:1;stroke-miterlimit:4;" d="M 38.223515 38.748408 C 38.259568 42.476312 37.037363 45.284858 34.556901 47.170442 C 32.080045 49.056026 28.878518 50.000621 24.959532 50.000621 L 11.522495 50.000621 C 11.255701 50.000621 11.046592 49.928514 10.891563 49.780696 C 10.74735 49.625667 10.675244 49.420164 10.675244 49.167791 L 10.675244 11.636382 C 10.675244 11.380404 10.74735 11.182111 10.891563 11.034293 C 11.046592 10.879264 11.255701 10.803552 11.522495 10.803552 L 23.838277 10.803552 C 32.981375 10.803552 37.552925 14.480981 37.552925 21.83584 C 37.552925 25.307765 36.32351 27.863939 33.861074 29.504361 C 33.633939 29.652179 33.615912 29.785576 33.806994 29.900946 C 36.748938 31.916322 38.223515 34.865476 38.223515 38.748408 Z M 21.541686 19.813254 C 21.314551 19.813254 21.202786 19.925019 21.202786 20.155759 L 21.202786 25.68993 C 21.202786 25.92067 21.314551 26.032435 21.541686 26.032435 L 23.950042 26.032435 C 25.035244 26.032435 25.853652 25.765641 26.408872 25.224843 C 26.974908 24.680439 27.256123 23.905295 27.256123 22.903015 C 27.256123 20.84077 26.1565 19.813254 23.950042 19.813254 Z M 24.508867 40.990919 C 25.511147 40.990919 26.289896 40.688072 26.848722 40.089588 C 27.411152 39.4875 27.695972 38.629433 27.695972 37.518993 C 27.695972 36.433791 27.425573 35.58654 26.88838 34.973636 C 26.351187 34.35352 25.576043 34.043462 24.562947 34.043462 L 21.541686 34.043462 C 21.314551 34.043462 21.202786 34.155227 21.202786 34.371547 L 21.202786 40.648413 C 21.202786 40.875549 21.314551 40.990919 21.541686 40.990919 Z M 55.024318 50.451286 C 52.298695 50.451286 49.901155 49.910487 47.8317 48.825285 C 45.762244 47.740083 44.157876 46.207821 43.018594 44.232104 C 41.879312 42.252782 41.309671 39.956191 41.309671 37.338727 L 41.309671 11.636382 C 41.309671 11.380404 41.381777 11.182111 41.529596 11.034293 C 41.684624 10.879264 41.890128 10.803552 42.1425 10.803552 L 50.989962 10.803552 C 51.253151 10.803552 51.458654 10.879264 51.606473 11.034293 C 51.757896 11.182111 51.837213 11.380404 51.837213 11.636382 L 51.837213 37.847078 C 51.837213 38.928675 52.125639 39.801163 52.698885 40.457331 C 53.282948 41.102684 54.058092 41.427163 55.024318 41.427163 C 55.961702 41.427163 56.726031 41.102684 57.320909 40.457331 C 57.919393 39.801163 58.22224 38.928675 58.22224 37.847078 L 58.22224 11.636382 C 58.22224 11.380404 58.294346 11.182111 58.442164 11.034293 C 58.597193 10.879264 58.799091 10.803552 59.055069 10.803552 L 67.902531 10.803552 C 68.16572 10.803552 68.371223 10.879264 68.515436 11.034293 C 68.670465 11.182111 68.749782 11.380404 68.749782 11.636382 L 68.749782 37.338727 C 68.749782 39.956191 68.180141 42.252782 67.040859 44.232104 C 65.901577 46.207821 64.293603 47.740083 62.213332 48.825285 C 60.143877 49.910487 57.746337 50.451286 55.024318 50.451286 Z M 73.065353 50.000621 C 72.802165 50.000621 72.593056 49.928514 72.438027 49.780696 C 72.290209 49.625667 72.218102 49.420164 72.218102 49.167791 L 72.218102 11.636382 C 72.218102 11.380404 72.290209 11.182111 72.438027 11.034293 C 72.593056 10.879264 72.802165 10.803552 73.065353 10.803552 L 81.912815 10.803552 C 82.165188 10.803552 82.367086 10.879264 82.511299 11.034293 C 82.666328 11.182111 82.745645 11.380404 82.745645 11.636382 L 82.745645 49.167791 C 82.745645 49.420164 82.666328 49.625667 82.511299 49.780696 C 82.367086 49.928514 82.165188 50.000621 81.912815 50.000621 Z M 87.234272 50.000621 C 86.967478 50.000621 86.758369 49.928514 86.60334 49.780696 C 86.459127 49.625667 86.387021 49.420164 86.387021 49.167791 L 86.387021 11.636382 C 86.387021 11.380404 86.459127 11.182111 86.60334 11.034293 C 86.758369 10.879264 86.967478 10.803552 87.234272 10.803552 L 96.078128 10.803552 C 96.334106 10.803552 96.536004 10.879264 96.680217 11.034293 C 96.835246 11.182111 96.914563 11.380404 96.914563 11.636382 L 96.914563 40.648413 C 96.914563 40.875549 97.026328 40.990919 97.253463 40.990919 L 111.310617 40.990919 C 111.573805 40.990919 111.779309 41.063026 111.923521 41.207238 C 112.07134 41.355057 112.143446 41.56056 112.143446 41.823749 L 112.143446 49.167791 C 112.143446 49.420164 112.07134 49.625667 111.923521 49.780696 C 111.779309 49.928514 111.573805 50.000621 111.310617 50.000621 Z M 115.792033 50.000621 C 115.528844 50.000621 115.319735 49.928514 115.164707 49.780696 C 115.020494 49.625667 114.944782 49.420164 114.944782 49.167791 L 114.944782 11.636382 C 114.944782 11.380404 115.020494 11.182111 115.164707 11.034293 C 115.319735 10.879264 115.528844 10.803552 115.792033 10.803552 L 128.493585 10.803552 C 131.266078 10.803552 133.696065 11.301087 135.783547 12.29255 C 137.867424 13.276803 139.489819 14.668458 140.650733 16.463909 C 141.808041 18.248543 142.384893 20.317999 142.384893 22.668669 L 142.384893 38.077818 C 142.384893 40.428489 141.808041 42.512365 140.650733 44.325843 C 139.489819 46.132109 137.867424 47.530974 135.783547 48.522438 C 133.696065 49.506691 131.266078 50.000621 128.493585 50.000621 Z M 125.472324 40.648413 C 125.472324 40.875549 125.587695 40.990919 125.81483 40.990919 L 128.547664 40.922418 C 129.488654 40.922418 130.263798 40.55107 130.873098 39.815584 C 131.493213 39.065677 131.821298 38.074213 131.857351 36.833982 L 131.857351 23.901689 C 131.857351 22.668669 131.547293 21.680811 130.927177 20.934509 C 130.317878 20.184602 129.50668 19.813254 128.493585 19.813254 L 125.81483 19.813254 C 125.587695 19.813254 125.472324 19.925019 125.472324 20.155759 Z M 159.077537 50.451286 C 156.31586 50.451286 153.896688 49.968173 151.816417 49.001946 C 149.746962 48.024904 148.142593 46.672908 147.003311 44.942353 C 145.864029 43.200982 145.294388 41.189212 145.294388 38.910648 L 145.294388 37.627153 C 145.294388 37.363964 145.3701 37.158461 145.514313 37.010643 C 145.669342 36.855614 145.878451 36.779902 146.145245 36.779902 L 154.826862 36.779902 C 155.079234 36.779902 155.281132 36.855614 155.425345 37.010643 C 155.580374 37.158461 155.659691 37.363964 155.659691 37.627153 L 155.659691 38.405903 C 155.659691 39.227916 156.005802 39.938165 156.698024 40.540254 C 157.390246 41.131527 158.316814 41.427163 159.474123 41.427163 C 160.404296 41.427163 161.092913 41.196422 161.536367 40.731336 C 161.983427 40.266249 162.206957 39.732661 162.206957 39.130573 C 162.206957 38.427535 161.8969 37.847078 161.276784 37.381991 C 160.667485 36.906088 159.506571 36.278762 157.790437 35.492802 L 156.438441 34.825817 C 154.350959 33.812722 152.541087 32.806837 151.01243 31.800952 C 149.480168 30.791461 148.153409 29.457492 147.032154 27.795438 C 145.910899 26.13699 145.352074 24.150457 145.352074 21.83584 C 145.352074 19.557276 145.921715 17.552716 147.060997 15.818556 C 148.200279 14.08079 149.764989 12.736005 151.762337 11.787805 C 153.766897 10.828789 156.056277 10.352887 158.626872 10.352887 C 161.276784 10.352887 163.649086 10.857632 165.736568 11.870728 C 167.831261 12.873007 169.468077 14.289899 170.643412 16.121403 C 171.818748 17.952907 172.406415 20.043994 172.406415 22.39827 L 172.406415 23.285179 C 172.406415 23.548368 172.330703 23.757477 172.175675 23.912505 C 172.027856 24.060324 171.822353 24.13243 171.559164 24.13243 L 162.877547 24.13243 C 162.621569 24.13243 162.416066 24.060324 162.261037 23.912505 C 162.116824 23.757477 162.044718 23.548368 162.044718 23.285179 L 162.044718 22.50643 C 162.044718 21.684416 161.716633 20.956141 161.060465 20.317999 C 160.411507 19.679857 159.546229 19.362588 158.461027 19.362588 C 157.642619 19.362588 156.975634 19.578908 156.467284 20.018757 C 155.966144 20.444185 155.713771 21.035458 155.713771 21.78176 C 155.713771 22.600168 156.131989 23.339259 156.972029 23.995428 C 157.812069 24.644386 159.463307 25.545717 161.932953 26.703025 C 162.307906 26.930161 162.870337 27.233008 163.616638 27.604356 C 165.592355 28.682347 167.178697 29.641363 168.375664 30.488614 C 169.569026 31.328654 170.574911 32.431883 171.396925 33.7983 C 172.215333 35.157507 172.62634 36.823166 172.62634 38.802488 C 172.62634 42.386179 171.382504 45.223568 168.894831 47.321866 C 166.414369 49.409348 163.140736 50.451286 159.077537 50.451286 Z M 159.077537 50.451286 " transform="matrix(1.083468,0,0,1.083468,156.386845,83.84939)"/>
<g clip-path="url(#clip1)" clip-rule="nonzero">
<path style=" stroke:none;fill-rule:nonzero;fill:rgb(0%,0%,0%);fill-opacity:1;" d="M 147.195312 59.835938 C 145.964844 59.835938 144.792969 59.570312 143.683594 59.035156 L 86.679688 31.773438 L 29.679688 59.035156 C 29.195312 59.269531 28.695312 59.457031 28.171875 59.589844 C 27.652344 59.726562 27.125 59.808594 26.589844 59.839844 C 26.050781 59.871094 25.515625 59.847656 24.984375 59.773438 C 24.453125 59.699219 23.933594 59.570312 23.425781 59.394531 C 22.917969 59.214844 22.433594 58.988281 21.972656 58.714844 C 21.507812 58.441406 21.078125 58.121094 20.679688 57.761719 C 20.277344 57.402344 19.917969 57.007812 19.59375 56.574219 C 19.273438 56.140625 18.996094 55.683594 18.765625 55.195312 C 18.535156 54.710938 18.351562 54.207031 18.21875 53.683594 C 18.089844 53.160156 18.007812 52.628906 17.980469 52.089844 C 17.953125 51.550781 17.980469 51.015625 18.058594 50.484375 C 18.136719 49.949219 18.265625 49.429688 18.449219 48.921875 C 18.628906 48.414062 18.855469 47.929688 19.132812 47.464844 C 19.410156 47.003906 19.730469 46.574219 20.089844 46.175781 C 20.453125 45.777344 20.847656 45.414062 21.28125 45.09375 C 21.714844 44.777344 22.171875 44.5 22.660156 44.273438 L 85.882812 14.027344 C 86.410156 13.773438 86.941406 13.773438 87.46875 14.027344 L 150.707031 44.273438 C 151.121094 44.46875 151.515625 44.703125 151.890625 44.96875 C 152.265625 45.234375 152.617188 45.527344 152.941406 45.851562 C 153.269531 46.175781 153.5625 46.527344 153.832031 46.902344 C 154.097656 47.277344 154.332031 47.671875 154.53125 48.085938 C 154.730469 48.5 154.894531 48.925781 155.023438 49.371094 C 155.152344 49.8125 155.242188 50.261719 155.292969 50.71875 C 155.347656 51.175781 155.359375 51.632812 155.335938 52.09375 C 155.3125 52.554688 155.25 53.007812 155.148438 53.457031 C 155.046875 53.90625 154.90625 54.34375 154.734375 54.769531 C 154.558594 55.195312 154.351562 55.601562 154.105469 55.992188 C 153.863281 56.382812 153.589844 56.75 153.285156 57.09375 C 152.980469 57.4375 152.648438 57.753906 152.289062 58.042969 C 151.929688 58.332031 151.550781 58.585938 151.148438 58.808594 C 150.75 59.03125 150.332031 59.222656 149.898438 59.375 C 149.464844 59.527344 149.023438 59.640625 148.570312 59.71875 C 148.117188 59.796875 147.664062 59.835938 147.203125 59.835938 Z M 86.675781 27.878906 C 86.953125 27.878906 87.214844 27.9375 87.464844 28.058594 L 145.265625 55.707031 C 145.53125 55.835938 145.804688 55.933594 146.089844 56.007812 C 146.375 56.078125 146.664062 56.121094 146.957031 56.136719 C 147.25 56.152344 147.539062 56.136719 147.832031 56.097656 C 148.121094 56.054688 148.40625 55.984375 148.683594 55.882812 C 148.957031 55.785156 149.222656 55.660156 149.476562 55.511719 C 149.726562 55.359375 149.960938 55.1875 150.179688 54.988281 C 150.398438 54.792969 150.59375 54.574219 150.769531 54.339844 C 150.945312 54.101562 151.097656 53.851562 151.222656 53.585938 C 151.351562 53.320312 151.449219 53.042969 151.519531 52.757812 C 151.59375 52.472656 151.636719 52.183594 151.652344 51.890625 C 151.667969 51.597656 151.65625 51.304688 151.613281 51.011719 C 151.570312 50.71875 151.5 50.4375 151.402344 50.15625 C 151.304688 49.878906 151.179688 49.613281 151.03125 49.363281 C 150.882812 49.109375 150.707031 48.871094 150.511719 48.652344 C 150.316406 48.433594 150.101562 48.238281 149.863281 48.058594 C 149.628906 47.882812 149.378906 47.730469 149.117188 47.605469 L 86.675781 17.738281 L 24.246094 47.601562 C 23.507812 47.953125 22.914062 48.46875 22.457031 49.148438 C 22.003906 49.828125 21.753906 50.574219 21.703125 51.390625 C 21.65625 52.207031 21.820312 52.976562 22.191406 53.703125 C 22.5625 54.429688 23.09375 55.011719 23.78125 55.449219 C 24.429688 55.863281 25.136719 56.089844 25.902344 56.136719 C 26.667969 56.183594 27.398438 56.039062 28.089844 55.707031 L 85.882812 28.058594 C 86.132812 27.9375 86.398438 27.878906 86.675781 27.878906 Z M 86.675781 27.878906 "/>
</g>
<g clip-path="url(#clip2)" clip-rule="nonzero">
<path style=" stroke:none;fill-rule:nonzero;fill:rgb(0%,0%,0%);fill-opacity:1;" d="M 138.660156 142.046875 L 34.699219 142.046875 C 34.453125 142.046875 34.21875 142 33.996094 141.90625 C 33.769531 141.8125 33.570312 141.679688 33.398438 141.507812 C 33.222656 141.335938 33.089844 141.136719 33 140.910156 C 32.90625 140.683594 32.859375 140.445312 32.859375 140.203125 L 32.859375 54.601562 C 32.859375 54.246094 32.953125 53.917969 33.144531 53.617188 C 33.332031 53.316406 33.585938 53.089844 33.90625 52.9375 L 85.882812 28.058594 C 86.410156 27.804688 86.941406 27.804688 87.46875 28.058594 L 139.453125 52.925781 C 139.773438 53.078125 140.027344 53.304688 140.21875 53.605469 C 140.40625 53.90625 140.5 54.234375 140.5 54.589844 L 140.5 140.203125 C 140.5 140.449219 140.453125 140.683594 140.359375 140.910156 C 140.265625 141.136719 140.132812 141.335938 139.960938 141.507812 C 139.789062 141.679688 139.589844 141.816406 139.363281 141.910156 C 139.140625 142 138.90625 142.046875 138.660156 142.046875 Z M 36.539062 138.359375 L 136.820312 138.359375 L 136.820312 55.753906 L 86.675781 31.769531 L 36.539062 55.753906 Z M 36.539062 138.359375 "/>
</g>
<path style=" stroke:none;fill-rule:nonzero;fill:rgb(0%,0%,0%);fill-opacity:1;" d="M 132.5 39.457031 C 132.222656 39.457031 131.960938 39.398438 131.710938 39.277344 L 118.925781 33.164062 C 118.605469 33.011719 118.351562 32.78125 118.164062 32.484375 C 117.972656 32.183594 117.878906 31.855469 117.878906 31.5 L 117.878906 15.984375 C 117.878906 15.738281 117.925781 15.503906 118.019531 15.277344 C 118.113281 15.050781 118.246094 14.851562 118.417969 14.675781 C 118.589844 14.503906 118.789062 14.371094 119.015625 14.277344 C 119.242188 14.183594 119.476562 14.136719 119.71875 14.136719 L 132.503906 14.136719 C 132.746094 14.136719 132.980469 14.183594 133.207031 14.277344 C 133.433594 14.371094 133.632812 14.503906 133.804688 14.675781 C 133.976562 14.851562 134.109375 15.050781 134.203125 15.277344 C 134.296875 15.503906 134.34375 15.738281 134.34375 15.984375 L 134.34375 37.613281 C 134.34375 37.859375 134.296875 38.09375 134.203125 38.320312 C 134.109375 38.546875 133.976562 38.746094 133.804688 38.917969 C 133.632812 39.09375 133.433594 39.226562 133.207031 39.320312 C 132.980469 39.414062 132.746094 39.460938 132.503906 39.460938 Z M 121.558594 30.332031 L 130.664062 34.6875 L 130.664062 17.824219 L 121.558594 17.824219 Z M 121.558594 30.332031 "/>
<path style=" stroke:none;fill-rule:nonzero;fill:rgb(0%,0%,0%);fill-opacity:1;" d="M 120.609375 71.375 L 118.453125 63.308594 C 118.410156 63.152344 118.351562 63.003906 118.269531 62.863281 C 118.1875 62.722656 118.089844 62.597656 117.976562 62.480469 C 117.863281 62.367188 117.734375 62.269531 117.597656 62.1875 C 117.457031 62.109375 117.308594 62.046875 117.152344 62.003906 C 116.996094 61.964844 116.839844 61.941406 116.675781 61.941406 C 116.515625 61.941406 116.355469 61.964844 116.199219 62.003906 C 116.046875 62.046875 115.898438 62.109375 115.757812 62.1875 C 115.617188 62.269531 115.492188 62.367188 115.375 62.480469 L 108.398438 69.480469 L 105.664062 66.738281 L 112.640625 59.738281 C 112.875 59.503906 113.03125 59.230469 113.117188 58.910156 C 113.203125 58.59375 113.203125 58.273438 113.117188 57.957031 C 113.035156 57.636719 112.875 57.359375 112.640625 57.128906 C 112.410156 56.894531 112.132812 56.734375 111.816406 56.652344 L 103.773438 54.488281 C 103.460938 54.40625 103.144531 54.40625 102.828125 54.492188 C 102.511719 54.578125 102.238281 54.734375 102.007812 54.964844 L 93.039062 63.960938 C 92.808594 64.195312 92.652344 64.46875 92.566406 64.785156 C 92.480469 65.101562 92.480469 65.417969 92.566406 65.734375 L 94.40625 72.632812 L 85.394531 81.675781 L 87.980469 84.300781 L 97.746094 74.503906 C 97.976562 74.273438 98.132812 73.996094 98.21875 73.679688 C 98.304688 73.363281 98.304688 73.046875 98.222656 72.730469 L 96.378906 65.835938 L 103.847656 58.34375 L 107.785156 59.402344 L 101.761719 65.449219 C 101.589844 65.621094 101.457031 65.820312 101.363281 66.046875 C 101.269531 66.273438 101.222656 66.507812 101.222656 66.753906 C 101.222656 66.996094 101.269531 67.230469 101.363281 67.457031 C 101.457031 67.683594 101.589844 67.882812 101.761719 68.054688 L 107.097656 73.410156 C 107.269531 73.582031 107.46875 73.714844 107.695312 73.808594 C 107.917969 73.902344 108.152344 73.949219 108.398438 73.949219 C 108.640625 73.949219 108.875 73.902344 109.101562 73.808594 C 109.328125 73.714844 109.527344 73.582031 109.699219 73.410156 L 115.722656 67.363281 L 116.777344 71.316406 L 109.3125 78.808594 L 102.4375 76.960938 C 102.121094 76.875 101.808594 76.878906 101.492188 76.960938 C 101.175781 77.046875 100.902344 77.207031 100.671875 77.4375 L 90.90625 87.234375 L 93.503906 89.84375 L 102.519531 80.796875 L 109.394531 82.648438 C 109.710938 82.730469 110.023438 82.730469 110.339844 82.644531 C 110.65625 82.558594 110.929688 82.402344 111.160156 82.171875 L 120.128906 73.175781 C 120.363281 72.941406 120.523438 72.660156 120.609375 72.339844 C 120.695312 72.019531 120.695312 71.699219 120.609375 71.375 Z M 120.609375 71.375 "/>
<path style=" stroke:none;fill-rule:nonzero;fill:rgb(0%,0%,0%);fill-opacity:1;" d="M 78.964844 104.410156 L 87.980469 95.367188 L 85.378906 92.757812 L 75.613281 102.554688 C 75.382812 102.789062 75.226562 103.0625 75.140625 103.378906 C 75.054688 103.695312 75.054688 104.011719 75.136719 104.328125 L 76.980469 111.222656 L 69.511719 118.714844 L 65.574219 117.65625 L 71.597656 111.613281 C 71.769531 111.4375 71.902344 111.238281 71.996094 111.011719 C 72.089844 110.789062 72.136719 110.550781 72.136719 110.308594 C 72.136719 110.0625 72.089844 109.828125 71.996094 109.601562 C 71.902344 109.375 71.769531 109.175781 71.597656 109.003906 L 66.261719 103.648438 C 66.089844 103.476562 65.890625 103.34375 65.664062 103.25 C 65.441406 103.15625 65.207031 103.109375 64.960938 103.109375 C 64.71875 103.109375 64.484375 103.15625 64.257812 103.25 C 64.03125 103.34375 63.832031 103.476562 63.660156 103.648438 L 57.636719 109.695312 L 56.589844 105.746094 L 64.058594 98.253906 L 70.929688 100.105469 C 71.246094 100.1875 71.5625 100.1875 71.878906 100.101562 C 72.191406 100.015625 72.464844 99.859375 72.699219 99.628906 L 82.464844 89.832031 L 79.863281 87.222656 L 70.847656 96.265625 L 63.976562 94.417969 C 63.660156 94.332031 63.34375 94.332031 63.027344 94.417969 C 62.710938 94.503906 62.4375 94.660156 62.207031 94.894531 L 53.238281 103.890625 C 53.007812 104.121094 52.851562 104.394531 52.765625 104.710938 C 52.683594 105.027344 52.679688 105.347656 52.765625 105.664062 L 54.917969 113.730469 C 54.960938 113.886719 55.023438 114.035156 55.101562 114.175781 C 55.183594 114.316406 55.28125 114.441406 55.394531 114.558594 C 55.511719 114.671875 55.636719 114.769531 55.777344 114.851562 C 55.917969 114.929688 56.0625 114.992188 56.21875 115.035156 C 56.375 115.078125 56.535156 115.097656 56.695312 115.097656 C 56.859375 115.097656 57.015625 115.078125 57.171875 115.035156 C 57.328125 114.992188 57.476562 114.929688 57.617188 114.851562 C 57.753906 114.769531 57.882812 114.671875 57.996094 114.558594 L 64.960938 107.574219 L 67.695312 110.316406 L 60.71875 117.316406 C 60.484375 117.550781 60.328125 117.824219 60.242188 118.144531 C 60.15625 118.460938 60.15625 118.78125 60.242188 119.097656 C 60.324219 119.417969 60.484375 119.695312 60.71875 119.925781 C 60.949219 120.160156 61.226562 120.320312 61.542969 120.40625 L 69.585938 122.566406 C 69.902344 122.648438 70.214844 122.648438 70.53125 122.5625 C 70.847656 122.476562 71.121094 122.320312 71.351562 122.089844 L 80.320312 113.09375 C 80.550781 112.859375 80.707031 112.585938 80.792969 112.269531 C 80.878906 111.953125 80.878906 111.636719 80.796875 111.320312 Z M 78.964844 104.410156 "/>
<path style=" stroke:none;fill-rule:nonzero;fill:rgb(0%,0%,0%);fill-opacity:1;" d="M 103.296875 122.625 C 102.789062 122.625 102.355469 122.445312 101.996094 122.085938 L 93.027344 113.089844 C 92.796875 112.855469 92.640625 112.582031 92.554688 112.265625 C 92.46875 111.949219 92.46875 111.632812 92.554688 111.316406 L 94.394531 104.417969 L 70.847656 80.789062 L 63.972656 82.636719 C 63.65625 82.71875 63.339844 82.71875 63.027344 82.632812 C 62.710938 82.550781 62.4375 82.390625 62.207031 82.160156 L 53.238281 73.164062 C 53.007812 72.929688 52.847656 72.65625 52.765625 72.339844 C 52.679688 72.023438 52.679688 71.707031 52.761719 71.390625 L 54.917969 63.320312 C 54.957031 63.164062 55.019531 63.015625 55.101562 62.878906 C 55.183594 62.738281 55.28125 62.609375 55.394531 62.496094 C 55.507812 62.382812 55.632812 62.285156 55.773438 62.203125 C 55.914062 62.121094 56.0625 62.058594 56.21875 62.019531 C 56.375 61.976562 56.53125 61.957031 56.695312 61.957031 C 56.855469 61.957031 57.015625 61.976562 57.171875 62.019531 C 57.324219 62.058594 57.472656 62.121094 57.613281 62.203125 C 57.753906 62.285156 57.878906 62.382812 57.996094 62.496094 L 64.972656 69.496094 L 67.707031 66.75 L 60.730469 59.75 C 60.496094 59.519531 60.339844 59.242188 60.253906 58.925781 C 60.167969 58.605469 60.167969 58.289062 60.253906 57.96875 C 60.335938 57.648438 60.496094 57.375 60.730469 57.140625 C 60.960938 56.90625 61.234375 56.75 61.554688 56.664062 L 69.597656 54.503906 C 69.910156 54.417969 70.226562 54.417969 70.542969 54.503906 C 70.859375 54.589844 71.132812 54.746094 71.363281 54.980469 L 80.332031 63.976562 C 80.5625 64.207031 80.71875 64.484375 80.804688 64.800781 C 80.890625 65.117188 80.890625 65.433594 80.804688 65.75 L 78.964844 72.644531 L 102.511719 96.269531 L 109.386719 94.421875 C 109.703125 94.335938 110.019531 94.339844 110.332031 94.421875 C 110.648438 94.507812 110.921875 94.667969 111.152344 94.898438 L 120.121094 103.894531 C 120.351562 104.125 120.511719 104.402344 120.59375 104.71875 C 120.679688 105.035156 120.679688 105.351562 120.597656 105.667969 L 118.441406 113.734375 C 118.402344 113.890625 118.339844 114.039062 118.257812 114.179688 C 118.179688 114.320312 118.082031 114.449219 117.964844 114.5625 C 117.851562 114.675781 117.726562 114.773438 117.585938 114.855469 C 117.445312 114.9375 117.296875 114.996094 117.140625 115.039062 C 116.984375 115.082031 116.828125 115.101562 116.664062 115.101562 C 116.503906 115.101562 116.34375 115.082031 116.191406 115.039062 C 116.035156 114.996094 115.886719 114.9375 115.746094 114.855469 C 115.605469 114.773438 115.480469 114.675781 115.363281 114.5625 L 108.398438 107.574219 L 105.660156 110.316406 L 112.640625 117.316406 C 112.871094 117.550781 113.03125 117.824219 113.117188 118.144531 C 113.203125 118.460938 113.203125 118.78125 113.117188 119.097656 C 113.03125 119.417969 112.871094 119.695312 112.640625 119.925781 C 112.40625 120.160156 112.132812 120.320312 111.816406 120.40625 L 103.773438 122.566406 C 103.617188 122.605469 103.457031 122.625 103.296875 122.625 Z M 96.378906 111.230469 L 103.847656 118.722656 L 107.785156 117.664062 L 101.761719 111.617188 C 101.589844 111.445312 101.457031 111.246094 101.363281 111.019531 C 101.269531 110.792969 101.222656 110.558594 101.222656 110.3125 C 101.222656 110.070312 101.269531 109.835938 101.363281 109.609375 C 101.457031 109.382812 101.589844 109.183594 101.761719 109.007812 L 107.097656 103.65625 C 107.269531 103.484375 107.46875 103.351562 107.695312 103.257812 C 107.917969 103.164062 108.152344 103.117188 108.398438 103.117188 C 108.640625 103.117188 108.875 103.164062 109.101562 103.257812 C 109.328125 103.351562 109.527344 103.484375 109.699219 103.65625 L 115.722656 109.699219 L 116.777344 105.75 L 109.3125 98.257812 L 102.4375 100.105469 C 102.121094 100.191406 101.808594 100.1875 101.492188 100.105469 C 101.175781 100.019531 100.902344 99.859375 100.671875 99.628906 L 75.613281 74.496094 C 75.382812 74.265625 75.226562 73.992188 75.140625 73.675781 C 75.054688 73.359375 75.054688 73.042969 75.136719 72.722656 L 76.980469 65.828125 L 69.511719 58.335938 L 65.574219 59.398438 L 71.597656 65.441406 C 71.769531 65.613281 71.902344 65.8125 71.996094 66.039062 C 72.089844 66.265625 72.136719 66.5 72.136719 66.746094 C 72.136719 66.988281 72.089844 67.226562 71.996094 67.453125 C 71.902344 67.675781 71.769531 67.875 71.597656 68.050781 L 66.261719 73.394531 C 66.089844 73.570312 65.890625 73.703125 65.664062 73.796875 C 65.441406 73.890625 65.207031 73.9375 64.960938 73.9375 C 64.71875 73.9375 64.484375 73.890625 64.257812 73.796875 C 64.03125 73.703125 63.832031 73.570312 63.660156 73.394531 L 57.636719 67.351562 L 56.589844 71.304688 L 64.058594 78.796875 L 70.929688 76.945312 C 71.246094 76.863281 71.5625 76.863281 71.878906 76.949219 C 72.191406 77.035156 72.464844 77.191406 72.699219 77.421875 L 97.746094 102.554688 C 97.976562 102.785156 98.132812 103.058594 98.21875 103.375 C 98.304688 103.691406 98.304688 104.007812 98.222656 104.328125 Z M 96.378906 111.230469 "/>
</g>
</svg>
