<?xml version="1.0" encoding="UTF-8"?>
<svg xmlns="http://www.w3.org/2000/svg" xmlns:xlink="http://www.w3.org/1999/xlink" width="375pt" height="374.999991pt" viewBox="0 0 375 374.999991" version="1.2">
<defs>
<clipPath id="clip1">
  <path d="M 13 106.28125 L 155 106.28125 L 155 154 L 13 154 Z M 13 106.28125 "/>
</clipPath>
<clipPath id="clip2">
  <path d="M 28 120 L 140 120 L 140 238.28125 L 28 238.28125 Z M 28 120 "/>
</clipPath>
<clipPath id="clip3">
  <path d="M 115 106.28125 L 133 106.28125 L 133 133 L 115 133 Z M 115 106.28125 "/>
</clipPath>
</defs>
<g id="surface1">
<path style="fill:none;stroke-width:1.773333;stroke-linecap:butt;stroke-linejoin:miter;stroke:rgb(0%,0%,0%);stroke-opacity:1;stroke-miterlimit:4;" d="M 29.489384 67.600045 C 25.805008 67.600045 22.567223 66.879409 19.772646 65.431372 C 16.988218 63.986717 14.826312 61.943225 13.283542 59.307661 C 11.740773 56.672097 10.969389 53.610242 10.969389 50.122095 L 10.969389 31.527668 C 10.969389 28.053054 11.740773 25.011499 13.283542 22.396235 C 14.826312 19.784354 16.988218 17.754394 19.772646 16.30974 C 22.567223 14.861702 25.805008 14.141067 29.489384 14.141067 C 33.119628 14.141067 36.330347 14.851553 39.111391 16.272524 C 41.905968 17.693496 44.074642 19.652406 45.620794 22.14249 C 47.163563 24.622423 47.934948 27.42715 47.934948 30.563437 L 47.934948 31.838929 C 47.934948 32.180638 47.830066 32.4513 47.623687 32.657679 C 47.430841 32.853908 47.156797 32.952023 46.804937 32.952023 L 35.010873 32.952023 C 34.669164 32.952023 34.398502 32.853908 34.192123 32.657679 C 33.995894 32.4513 33.897779 32.180638 33.897779 31.838929 L 33.897779 30.708918 C 33.897779 29.419894 33.498554 28.340632 32.69672 27.464366 C 31.905036 26.5881 30.835924 26.151659 29.489384 26.151659 C 28.149611 26.151659 27.070349 26.625316 26.244833 27.572631 C 25.415933 28.523328 25.003174 29.76837 25.003174 31.311139 L 25.003174 50.358924 C 25.003174 51.901693 25.466682 53.160268 26.390313 54.131265 C 27.313944 55.092112 28.447338 55.572536 29.797261 55.572536 C 31.035536 55.572536 32.050516 55.176694 32.8422 54.38501 C 33.644034 53.583176 34.04326 52.490381 34.04326 51.106625 L 34.04326 48.86352 C 34.04326 48.559027 33.894396 48.40678 33.589902 48.40678 L 30.088222 48.40678 C 29.736363 48.40678 29.462318 48.312048 29.269472 48.115819 C 29.073243 47.90944 28.978511 47.635395 28.978511 47.297069 L 28.978511 38.473512 C 28.978511 38.135186 29.073243 37.867908 29.269472 37.671678 C 29.462318 37.465299 29.736363 37.360418 30.088222 37.360418 L 46.804937 37.360418 C 47.156797 37.360418 47.430841 37.465299 47.623687 37.671678 C 47.830066 37.867908 47.934948 38.135186 47.934948 38.473512 L 47.934948 50.504404 C 47.934948 53.880903 47.163563 56.864943 45.620794 59.453141 C 44.074642 62.041339 41.905968 64.047616 39.111391 65.468587 C 36.330347 66.889559 33.119628 67.600045 29.489384 67.600045 Z M 70.393064 67.748908 C 66.664705 67.748908 63.376171 67.001207 60.534228 65.505803 C 57.702435 64.0104 55.513462 61.909392 53.970693 59.199396 C 52.427924 56.489401 51.65654 53.342964 51.65654 49.756703 L 51.65654 31.984409 C 51.65654 28.401531 52.427924 25.265244 53.970693 22.578931 C 55.513462 19.892618 57.702435 17.815293 60.534228 16.346956 C 63.376171 14.875235 66.664705 14.141067 70.393064 14.141067 C 74.138339 14.141067 77.437023 14.875235 80.292499 16.346956 C 83.158125 17.815293 85.364014 19.892618 86.906783 22.578931 C 88.452935 25.265244 89.22432 28.401531 89.22432 31.984409 L 89.22432 49.756703 C 89.22432 53.342964 88.439402 56.489401 86.87295 59.199396 C 85.303115 61.909392 83.097226 64.0104 80.255283 65.505803 C 77.42349 67.001207 74.138339 67.748908 70.393064 67.748908 Z M 70.393064 55.734933 C 71.841101 55.734933 73.001562 55.237593 73.874444 54.239529 C 74.75071 53.244849 75.187151 51.918609 75.187151 50.267576 L 75.187151 31.6021 C 75.187151 29.961216 74.75071 28.641743 73.874444 27.647063 C 73.001562 26.648999 71.841101 26.151659 70.393064 26.151659 C 69.009308 26.151659 67.879298 26.648999 67.003032 27.647063 C 66.130149 28.641743 65.690325 29.961216 65.690325 31.6021 L 65.690325 50.267576 C 65.690325 51.918609 66.130149 53.244849 67.003032 54.239529 C 67.879298 55.237593 69.009308 55.734933 70.393064 55.734933 Z M 111.679053 67.748908 C 107.947311 67.748908 104.66216 67.001207 101.816834 65.505803 C 98.98504 64.0104 96.799451 61.909392 95.256682 59.199396 C 93.713913 56.489401 92.942528 53.342964 92.942528 49.756703 L 92.942528 31.984409 C 92.942528 28.401531 93.713913 25.265244 95.256682 22.578931 C 96.799451 19.892618 98.98504 17.815293 101.816834 16.346956 C 104.66216 14.875235 107.947311 14.141067 111.679053 14.141067 C 115.420944 14.141067 118.719628 14.875235 121.575104 16.346956 C 124.444113 17.815293 126.650002 19.892618 128.192771 22.578931 C 129.73554 25.265244 130.506925 28.401531 130.506925 31.984409 L 130.506925 49.756703 C 130.506925 53.342964 129.725391 56.489401 128.155555 59.199396 C 126.589104 61.909392 124.383214 64.0104 121.541271 65.505803 C 118.709478 67.001207 115.420944 67.748908 111.679053 67.748908 Z M 111.679053 55.734933 C 113.123707 55.734933 114.284167 55.237593 115.160433 54.239529 C 116.036699 53.244849 116.47314 51.918609 116.47314 50.267576 L 116.47314 31.6021 C 116.47314 29.961216 116.036699 28.641743 115.160433 27.647063 C 114.284167 26.648999 113.123707 26.151659 111.679053 26.151659 C 110.295297 26.151659 109.165286 26.648999 108.289021 27.647063 C 107.412755 28.641743 106.976314 29.961216 106.976314 31.6021 L 106.976314 50.267576 C 106.976314 51.918609 107.412755 53.244849 108.289021 54.239529 C 109.165286 55.237593 110.295297 55.734933 111.679053 55.734933 Z M 135.957366 67.001207 C 135.605506 67.001207 135.324695 66.903092 135.118316 66.706863 C 134.92547 66.500483 134.827355 66.229822 134.827355 65.888112 L 134.827355 15.852999 C 134.827355 15.514673 134.92547 15.247395 135.118316 15.051165 C 135.324695 14.844786 135.605506 14.743288 135.957366 14.743288 L 152.890609 14.743288 C 156.585135 14.743288 159.82292 15.403025 162.607348 16.729265 C 165.388392 18.041972 167.553682 19.892618 169.096451 22.28797 C 170.63922 24.669789 171.410605 27.42715 171.410605 30.563437 L 171.410605 51.106625 C 171.410605 54.239529 170.63922 57.01719 169.096451 59.436225 C 167.553682 61.841727 165.388392 63.705906 162.607348 65.032146 C 159.82292 66.344853 156.585135 67.001207 152.890609 67.001207 Z M 148.86114 54.533873 C 148.86114 54.834984 149.013387 54.987231 149.317881 54.987231 L 152.965041 54.895883 C 154.216849 54.895883 155.248745 54.405309 156.064112 53.420779 C 156.889629 52.422716 157.32607 51.099859 157.373436 49.445442 L 157.373436 32.204321 C 157.373436 30.563437 156.960678 29.243964 156.135161 28.249284 C 155.319794 27.251221 154.240532 26.753881 152.890609 26.753881 L 149.317881 26.753881 C 149.013387 26.753881 148.86114 26.906127 148.86114 27.210621 Z M 148.86114 54.533873 " transform="matrix(1.15458,0,0,1.15458,152.13184,100.665197)"/>
<path style="fill:none;stroke-width:1.33;stroke-linecap:butt;stroke-linejoin:miter;stroke:rgb(0%,0%,0%);stroke-opacity:1;stroke-miterlimit:4;" d="M 38.223565 38.748225 C 38.25856 42.475237 37.03722 45.28187 34.559545 47.171622 C 32.078369 49.057876 28.879788 49.999252 24.960301 49.999252 L 11.52206 49.999252 C 11.256095 49.999252 11.046122 49.925762 10.892142 49.782281 C 10.745162 49.624801 10.675171 49.421828 10.675171 49.166361 L 10.675171 11.637274 C 10.675171 11.381807 10.745162 11.182333 10.892142 11.035352 C 11.046122 10.881372 11.256095 10.804383 11.52206 10.804383 L 23.840448 10.804383 C 32.981251 10.804383 37.551653 14.478902 37.551653 21.834939 C 37.551653 25.309984 36.323314 27.86465 33.859636 29.505935 C 33.632166 29.652915 33.614668 29.782399 33.807143 29.901383 C 36.750258 31.917119 38.223565 34.863733 38.223565 38.748225 Z M 21.541249 19.812203 C 21.313778 19.812203 21.201793 19.927688 21.201793 20.155159 L 21.201793 25.691434 C 21.201793 25.918904 21.313778 26.034389 21.541249 26.034389 L 23.948933 26.034389 C 25.033791 26.034389 25.852684 25.764924 26.409111 25.225995 C 26.976037 24.680066 27.2595 23.906668 27.2595 22.902299 C 27.2595 20.841069 26.153645 19.812203 23.948933 19.812203 Z M 24.50886 40.991431 C 25.513229 40.991431 26.290127 40.690471 26.846554 40.08855 C 27.41348 39.486628 27.696943 38.629241 27.696943 37.516386 C 27.696943 36.431528 27.427478 35.584639 26.888549 34.975719 C 26.349619 34.3563 25.57622 34.044841 24.564853 34.044841 L 21.541249 34.044841 C 21.313778 34.044841 21.201793 34.153326 21.201793 34.373798 L 21.201793 40.648476 C 21.201793 40.875946 21.313778 40.991431 21.541249 40.991431 Z M 55.021366 50.450693 C 52.298723 50.450693 49.901536 49.908264 47.829808 48.823406 C 45.761578 47.738548 44.158788 46.209248 43.017937 44.232007 C 41.880586 42.251266 41.310161 39.955567 41.310161 37.341409 L 41.310161 11.637274 C 41.310161 11.381807 41.383651 11.182333 41.527133 11.035352 C 41.684612 10.881372 41.887585 10.804383 42.143052 10.804383 L 50.989894 10.804383 C 51.25236 10.804383 51.458833 10.881372 51.605813 11.035352 C 51.759793 11.182333 51.836783 11.381807 51.836783 11.637274 L 51.836783 37.845343 C 51.836783 38.930201 52.123746 39.801587 52.69767 40.456001 C 53.282094 41.103417 54.055493 41.428874 55.021366 41.428874 C 55.962743 41.428874 56.725643 41.103417 57.320565 40.456001 C 57.922487 39.801587 58.223447 38.930201 58.223447 37.845343 L 58.223447 11.637274 C 58.223447 11.381807 58.293438 11.182333 58.440419 11.035352 C 58.594399 10.881372 58.800872 10.804383 59.056338 10.804383 L 67.90318 10.804383 C 68.165646 10.804383 68.372119 10.881372 68.5156 11.035352 C 68.673079 11.182333 68.750069 11.381807 68.750069 11.637274 L 68.750069 37.341409 C 68.750069 39.955567 68.179644 42.251266 67.038793 44.232007 C 65.901442 46.209248 64.291653 47.738548 62.212925 48.823406 C 60.144696 49.908264 57.74751 50.450693 55.021366 50.450693 Z M 73.065005 49.999252 C 72.802539 49.999252 72.592566 49.925762 72.435087 49.782281 C 72.291606 49.624801 72.218115 49.421828 72.218115 49.166361 L 72.218115 11.637274 C 72.218115 11.381807 72.291606 11.182333 72.435087 11.035352 C 72.592566 10.881372 72.802539 10.804383 73.065005 10.804383 L 81.911847 10.804383 C 82.167313 10.804383 82.366787 10.881372 82.513768 11.035352 C 82.667748 11.182333 82.744738 11.381807 82.744738 11.637274 L 82.744738 49.166361 C 82.744738 49.421828 82.667748 49.624801 82.513768 49.782281 C 82.366787 49.925762 82.167313 49.999252 81.911847 49.999252 Z M 87.23465 49.999252 C 86.968685 49.999252 86.758712 49.925762 86.604732 49.782281 C 86.457752 49.624801 86.384261 49.421828 86.384261 49.166361 L 86.384261 11.637274 C 86.384261 11.381807 86.457752 11.182333 86.604732 11.035352 C 86.758712 10.881372 86.968685 10.804383 87.23465 10.804383 L 96.077992 10.804383 C 96.333459 10.804383 96.536432 10.881372 96.679914 11.035352 C 96.837393 11.182333 96.914383 11.381807 96.914383 11.637274 L 96.914383 40.648476 C 96.914383 40.875946 97.026368 40.991431 97.253839 40.991431 L 111.307999 40.991431 C 111.573964 40.991431 111.780437 41.061422 111.923918 41.208403 C 112.070899 41.355384 112.14439 41.558357 112.14439 41.824322 L 112.14439 49.166361 C 112.14439 49.421828 112.070899 49.624801 111.923918 49.782281 C 111.780437 49.925762 111.573964 49.999252 111.307999 49.999252 Z M 115.794412 49.999252 C 115.528447 49.999252 115.318474 49.925762 115.164494 49.782281 C 115.017513 49.624801 114.947523 49.421828 114.947523 49.166361 L 114.947523 11.637274 C 114.947523 11.381807 115.017513 11.182333 115.164494 11.035352 C 115.318474 10.881372 115.528447 10.804383 115.794412 10.804383 L 128.49425 10.804383 C 131.265887 10.804383 133.694569 11.297818 135.780296 12.291688 C 137.869522 13.278559 139.48981 14.667877 140.648159 16.463142 C 141.806507 18.247908 142.383931 20.319637 142.383931 22.671329 L 142.383931 38.079812 C 142.383931 40.428005 141.806507 42.513732 140.648159 44.326495 C 139.48981 46.132258 137.869522 47.528576 135.780296 48.522446 C 133.694569 49.509316 131.265887 49.999252 128.49425 49.999252 Z M 125.474145 40.648476 C 125.474145 40.875946 125.58613 40.991431 125.8136 40.991431 L 128.550242 40.921441 C 129.488119 40.921441 130.261518 40.553989 130.873938 39.815585 C 131.493357 39.066683 131.822314 38.072813 131.857309 36.833976 L 131.857309 23.899668 C 131.857309 22.671329 131.54935 21.680959 130.929931 20.932057 C 130.317511 20.186654 129.505617 19.812203 128.49425 19.812203 L 125.8136 19.812203 C 125.58613 19.812203 125.474145 19.927688 125.474145 20.155159 Z M 159.076747 50.450693 C 156.315608 50.450693 153.893925 49.967756 151.818697 49.001883 C 149.746968 48.025511 148.144178 46.674687 147.003327 44.942414 C 145.865976 43.199642 145.29555 41.190905 145.29555 38.912703 L 145.29555 37.628372 C 145.29555 37.362406 145.369041 37.155933 145.516022 37.012452 C 145.670001 36.858472 145.879974 36.777983 146.14244 36.777983 L 154.824803 36.777983 C 155.08027 36.777983 155.279744 36.858472 155.426724 37.012452 C 155.580704 37.155933 155.657694 37.362406 155.657694 37.628372 L 155.657694 38.40527 C 155.657694 39.227662 156.004149 39.938069 156.697058 40.53999 C 157.389967 41.131413 158.317346 41.428874 159.472195 41.428874 C 160.403073 41.428874 161.092483 41.194405 161.536925 40.728966 C 161.984866 40.267026 162.208837 39.731596 162.208837 39.129675 C 162.208837 38.429767 161.897377 37.845343 161.277958 37.379904 C 160.669038 36.907466 159.50719 36.277548 157.792415 35.493651 L 156.438092 34.825238 C 154.352365 33.813871 152.543102 32.806003 151.010302 31.801634 C 149.481003 30.790267 148.154676 29.456941 147.031323 27.798158 C 145.91147 26.139375 145.351543 24.151636 145.351543 21.834939 C 145.351543 19.556737 145.921968 17.551499 147.05932 15.819226 C 148.20017 14.079954 149.767965 12.73613 151.762704 11.787754 C 153.767941 10.828879 156.056642 10.352942 158.625306 10.352942 C 161.277958 10.352942 163.647148 10.856876 165.736375 11.868243 C 167.832601 12.872612 169.466887 14.289926 170.642733 16.120187 C 171.818579 17.953947 172.406502 20.043173 172.406502 22.394865 L 172.406502 23.283749 C 172.406502 23.549714 172.329512 23.759687 172.175532 23.913667 C 172.028551 24.060647 171.825578 24.134138 171.559613 24.134138 L 162.877249 24.134138 C 162.621783 24.134138 162.418809 24.060647 162.26133 23.913667 C 162.117849 23.759687 162.044358 23.549714 162.044358 23.283749 L 162.044358 22.506851 C 162.044358 21.684458 161.715401 20.956554 161.060987 20.319637 C 160.413572 19.679221 159.545685 19.360763 158.460827 19.360763 C 157.641934 19.360763 156.977021 19.581234 156.466088 20.018676 C 155.965654 20.445621 155.713687 21.033544 155.713687 21.782446 C 155.713687 22.601338 156.133632 23.339742 156.970022 23.997656 C 157.809912 24.641571 159.465196 25.544453 161.935872 26.702802 C 162.306824 26.930272 162.87025 27.231232 163.615652 27.605683 C 165.592894 28.680043 167.181686 29.642417 168.37503 30.489306 C 169.568373 31.329196 170.576241 32.431552 171.395134 33.799873 C 172.217527 35.157695 172.626973 36.823477 172.626973 38.804218 C 172.626973 42.384249 171.381136 45.222378 168.892962 47.318603 C 166.415286 49.40783 163.143214 50.450693 159.076747 50.450693 Z M 159.076747 50.450693 " transform="matrix(1.116218,0,0,1.116218,155.634969,178.42824)"/>
<g clip-path="url(#clip1)" clip-rule="nonzero">
<path style=" stroke:none;fill-rule:nonzero;fill:rgb(0%,0%,0%);fill-opacity:1;" d="M 146.164062 153.691406 C 144.898438 153.691406 143.691406 153.414062 142.546875 152.863281 L 83.820312 124.777344 L 25.097656 152.863281 C 24.597656 153.105469 24.082031 153.296875 23.546875 153.4375 C 23.011719 153.578125 22.464844 153.664062 21.914062 153.695312 C 21.359375 153.726562 20.808594 153.703125 20.261719 153.625 C 19.714844 153.546875 19.179688 153.417969 18.65625 153.234375 C 18.132812 153.050781 17.632812 152.816406 17.15625 152.535156 C 16.679688 152.25 16.234375 151.921875 15.824219 151.550781 C 15.410156 151.179688 15.039062 150.773438 14.707031 150.328125 C 14.375 149.882812 14.089844 149.410156 13.851562 148.910156 C 13.613281 148.40625 13.429688 147.886719 13.292969 147.347656 C 13.15625 146.8125 13.074219 146.265625 13.046875 145.710938 C 13.019531 145.15625 13.042969 144.601562 13.125 144.054688 C 13.207031 143.503906 13.339844 142.96875 13.527344 142.445312 C 13.710938 141.921875 13.949219 141.421875 14.234375 140.945312 C 14.519531 140.46875 14.847656 140.027344 15.21875 139.613281 C 15.589844 139.203125 16 138.832031 16.445312 138.503906 C 16.890625 138.171875 17.363281 137.890625 17.867188 137.652344 L 83 106.496094 C 83.542969 106.234375 84.089844 106.234375 84.632812 106.496094 L 149.785156 137.652344 C 150.210938 137.859375 150.617188 138.097656 151.003906 138.371094 C 151.390625 138.644531 151.75 138.949219 152.085938 139.28125 C 152.421875 139.617188 152.726562 139.976562 153 140.363281 C 153.277344 140.75 153.515625 141.15625 153.722656 141.582031 C 153.929688 142.007812 154.097656 142.449219 154.230469 142.90625 C 154.363281 143.363281 154.453125 143.824219 154.507812 144.296875 C 154.5625 144.765625 154.578125 145.238281 154.550781 145.714844 C 154.527344 146.1875 154.460938 146.65625 154.359375 147.117188 C 154.253906 147.582031 154.113281 148.03125 153.933594 148.46875 C 153.75 148.90625 153.535156 149.328125 153.285156 149.730469 C 153.035156 150.132812 152.753906 150.511719 152.4375 150.863281 C 152.125 151.21875 151.78125 151.542969 151.414062 151.839844 C 151.042969 152.136719 150.652344 152.402344 150.238281 152.632812 C 149.828125 152.859375 149.398438 153.054688 148.949219 153.210938 C 148.503906 153.371094 148.050781 153.488281 147.582031 153.570312 C 147.117188 153.648438 146.648438 153.691406 146.175781 153.691406 Z M 83.816406 120.765625 C 84.101562 120.765625 84.371094 120.828125 84.628906 120.949219 L 144.175781 149.4375 C 144.449219 149.566406 144.734375 149.667969 145.027344 149.742188 C 145.320312 149.816406 145.617188 149.863281 145.917969 149.878906 C 146.222656 149.894531 146.519531 149.878906 146.820312 149.835938 C 147.121094 149.792969 147.410156 149.71875 147.695312 149.617188 C 147.980469 149.515625 148.253906 149.386719 148.515625 149.234375 C 148.773438 149.078125 149.015625 148.898438 149.242188 148.695312 C 149.464844 148.492188 149.667969 148.269531 149.847656 148.027344 C 150.03125 147.78125 150.183594 147.523438 150.316406 147.25 C 150.445312 146.976562 150.546875 146.691406 150.621094 146.398438 C 150.695312 146.105469 150.742188 145.804688 150.757812 145.503906 C 150.773438 145.199219 150.761719 144.898438 150.714844 144.597656 C 150.671875 144.296875 150.601562 144.003906 150.5 143.71875 C 150.398438 143.433594 150.273438 143.160156 150.117188 142.898438 C 149.964844 142.636719 149.785156 142.394531 149.582031 142.167969 C 149.378906 141.941406 149.160156 141.738281 148.917969 141.558594 C 148.675781 141.375 148.417969 141.21875 148.144531 141.089844 L 83.816406 110.316406 L 19.5 141.085938 C 18.742188 141.449219 18.128906 141.980469 17.660156 142.679688 C 17.191406 143.375 16.929688 144.144531 16.882812 144.988281 C 16.832031 145.828125 17 146.621094 17.382812 147.371094 C 17.765625 148.121094 18.3125 148.71875 19.023438 149.167969 C 19.6875 149.59375 20.417969 149.832031 21.207031 149.878906 C 21.996094 149.925781 22.746094 149.777344 23.457031 149.4375 L 83 120.949219 C 83.257812 120.828125 83.53125 120.765625 83.816406 120.765625 Z M 83.816406 120.765625 "/>
</g>
<g clip-path="url(#clip2)" clip-rule="nonzero">
<path style=" stroke:none;fill-rule:nonzero;fill:rgb(0%,0%,0%);fill-opacity:1;" d="M 137.375 238.386719 L 30.269531 238.386719 C 30.015625 238.386719 29.773438 238.339844 29.542969 238.242188 C 29.308594 238.144531 29.105469 238.007812 28.925781 237.828125 C 28.75 237.652344 28.613281 237.445312 28.515625 237.210938 C 28.421875 236.980469 28.371094 236.734375 28.371094 236.484375 L 28.371094 148.296875 C 28.375 147.929688 28.46875 147.589844 28.664062 147.28125 C 28.859375 146.972656 29.121094 146.738281 29.453125 146.582031 L 83 120.949219 C 83.542969 120.691406 84.089844 120.691406 84.632812 120.949219 L 138.191406 146.570312 C 138.519531 146.726562 138.78125 146.960938 138.976562 147.269531 C 139.171875 147.578125 139.269531 147.917969 139.269531 148.285156 L 139.269531 236.484375 C 139.269531 236.738281 139.222656 236.980469 139.125 237.214844 C 139.027344 237.445312 138.890625 237.652344 138.714844 237.832031 C 138.535156 238.007812 138.332031 238.144531 138.097656 238.242188 C 137.867188 238.339844 137.625 238.386719 137.375 238.386719 Z M 32.164062 234.585938 L 135.476562 234.585938 L 135.476562 149.484375 L 83.816406 124.777344 L 32.164062 149.484375 Z M 32.164062 234.585938 "/>
</g>
<g clip-path="url(#clip3)" clip-rule="nonzero">
<path style=" stroke:none;fill-rule:nonzero;fill:rgb(0%,0%,0%);fill-opacity:1;" d="M 131.027344 132.695312 C 130.742188 132.695312 130.46875 132.632812 130.210938 132.507812 L 117.042969 126.210938 C 116.714844 126.050781 116.449219 125.816406 116.257812 125.507812 C 116.0625 125.199219 115.964844 124.859375 115.964844 124.496094 L 115.964844 108.511719 C 115.964844 108.257812 116.011719 108.015625 116.105469 107.78125 C 116.203125 107.550781 116.339844 107.34375 116.519531 107.164062 C 116.695312 106.988281 116.902344 106.847656 117.132812 106.753906 C 117.367188 106.65625 117.609375 106.609375 117.859375 106.609375 L 131.03125 106.609375 C 131.28125 106.609375 131.523438 106.65625 131.753906 106.753906 C 131.988281 106.847656 132.191406 106.988281 132.371094 107.164062 C 132.546875 107.34375 132.6875 107.550781 132.78125 107.78125 C 132.878906 108.015625 132.925781 108.257812 132.925781 108.511719 L 132.925781 130.792969 C 132.925781 131.046875 132.878906 131.289062 132.78125 131.523438 C 132.6875 131.757812 132.546875 131.960938 132.371094 132.140625 C 132.191406 132.320312 131.988281 132.457031 131.753906 132.550781 C 131.523438 132.648438 131.28125 132.695312 131.03125 132.695312 Z M 119.753906 123.292969 L 129.132812 127.78125 L 129.132812 110.410156 L 119.753906 110.410156 Z M 119.753906 123.292969 "/>
</g>
<path style=" stroke:none;fill-rule:nonzero;fill:rgb(0%,0%,0%);fill-opacity:1;" d="M 118.773438 165.578125 L 116.554688 157.265625 C 116.511719 157.105469 116.449219 156.953125 116.367188 156.808594 C 116.28125 156.664062 116.183594 156.53125 116.0625 156.414062 C 115.945312 156.296875 115.816406 156.195312 115.671875 156.113281 C 115.527344 156.03125 115.375 155.964844 115.214844 155.921875 C 115.054688 155.878906 114.890625 155.859375 114.722656 155.859375 C 114.558594 155.859375 114.394531 155.878906 114.234375 155.921875 C 114.074219 155.964844 113.921875 156.03125 113.777344 156.113281 C 113.632812 156.195312 113.503906 156.296875 113.382812 156.414062 L 106.195312 163.625 L 103.378906 160.800781 L 110.566406 153.589844 C 110.808594 153.347656 110.96875 153.0625 111.058594 152.734375 C 111.144531 152.40625 111.148438 152.078125 111.058594 151.75 C 110.972656 151.421875 110.808594 151.140625 110.566406 150.898438 C 110.328125 150.660156 110.046875 150.496094 109.71875 150.40625 L 101.433594 148.179688 C 101.105469 148.09375 100.78125 148.09375 100.457031 148.183594 C 100.132812 148.269531 99.851562 148.433594 99.613281 148.671875 L 90.371094 157.941406 C 90.136719 158.179688 89.972656 158.460938 89.886719 158.789062 C 89.796875 159.113281 89.796875 159.441406 89.882812 159.765625 L 91.78125 166.871094 L 82.496094 176.1875 L 85.160156 178.894531 L 95.222656 168.800781 C 95.457031 168.5625 95.621094 168.277344 95.710938 167.953125 C 95.796875 167.625 95.796875 167.300781 95.710938 166.972656 L 93.8125 159.871094 L 101.507812 152.152344 L 105.566406 153.242188 L 99.359375 159.46875 C 99.179688 159.648438 99.042969 159.855469 98.949219 160.085938 C 98.851562 160.320312 98.804688 160.5625 98.804688 160.8125 C 98.804688 161.066406 98.851562 161.308594 98.949219 161.542969 C 99.042969 161.773438 99.179688 161.980469 99.359375 162.15625 L 104.855469 167.671875 C 105.035156 167.851562 105.238281 167.988281 105.46875 168.085938 C 105.703125 168.179688 105.945312 168.230469 106.195312 168.230469 C 106.445312 168.230469 106.6875 168.179688 106.921875 168.085938 C 107.152344 167.988281 107.359375 167.851562 107.535156 167.671875 L 113.742188 161.445312 L 114.832031 165.515625 L 107.136719 173.234375 L 100.054688 171.332031 C 99.730469 171.246094 99.40625 171.246094 99.078125 171.332031 C 98.753906 171.421875 98.472656 171.582031 98.234375 171.820312 L 88.175781 181.914062 L 90.851562 184.601562 L 100.140625 175.285156 L 107.222656 177.191406 C 107.546875 177.277344 107.871094 177.273438 108.195312 177.1875 C 108.523438 177.101562 108.804688 176.9375 109.042969 176.699219 L 118.28125 167.429688 C 118.523438 167.1875 118.6875 166.902344 118.777344 166.570312 C 118.867188 166.238281 118.863281 165.910156 118.773438 165.578125 Z M 118.773438 165.578125 "/>
<path style=" stroke:none;fill-rule:nonzero;fill:rgb(0%,0%,0%);fill-opacity:1;" d="M 75.875 199.609375 L 85.160156 190.292969 L 82.480469 187.605469 L 72.421875 197.699219 C 72.183594 197.9375 72.019531 198.222656 71.933594 198.546875 C 71.84375 198.875 71.84375 199.199219 71.929688 199.527344 L 73.828125 206.628906 L 66.132812 214.347656 L 62.074219 213.257812 L 68.28125 207.03125 C 68.460938 206.851562 68.597656 206.644531 68.695312 206.414062 C 68.789062 206.179688 68.839844 205.9375 68.839844 205.6875 C 68.839844 205.433594 68.789062 205.191406 68.695312 204.957031 C 68.597656 204.726562 68.460938 204.519531 68.28125 204.34375 L 62.785156 198.828125 C 62.609375 198.648438 62.402344 198.511719 62.171875 198.414062 C 61.9375 198.320312 61.699219 198.269531 61.445312 198.269531 C 61.195312 198.269531 60.953125 198.320312 60.722656 198.414062 C 60.488281 198.511719 60.285156 198.648438 60.105469 198.828125 L 53.898438 205.054688 L 52.820312 200.988281 L 60.515625 193.269531 L 67.59375 195.175781 C 67.921875 195.261719 68.246094 195.261719 68.570312 195.171875 C 68.894531 195.085938 69.179688 194.921875 69.417969 194.683594 L 79.476562 184.589844 L 76.796875 181.902344 L 67.511719 191.21875 L 60.429688 189.316406 C 60.105469 189.230469 59.78125 189.230469 59.453125 189.316406 C 59.128906 189.40625 58.847656 189.566406 58.609375 189.804688 L 49.371094 199.074219 C 49.132812 199.3125 48.96875 199.597656 48.882812 199.921875 C 48.796875 200.25 48.792969 200.574219 48.882812 200.902344 L 51.101562 209.210938 C 51.144531 209.375 51.207031 209.527344 51.289062 209.671875 C 51.375 209.816406 51.472656 209.945312 51.589844 210.0625 C 51.707031 210.183594 51.839844 210.28125 51.984375 210.367188 C 52.128906 210.449219 52.28125 210.511719 52.441406 210.554688 C 52.601562 210.597656 52.765625 210.621094 52.929688 210.621094 C 53.097656 210.621094 53.261719 210.597656 53.421875 210.554688 C 53.582031 210.511719 53.734375 210.449219 53.878906 210.367188 C 54.023438 210.28125 54.152344 210.183594 54.269531 210.066406 L 61.445312 202.871094 L 64.261719 205.695312 L 57.074219 212.90625 C 56.835938 213.148438 56.671875 213.429688 56.582031 213.757812 C 56.496094 214.085938 56.496094 214.414062 56.582031 214.742188 C 56.671875 215.070312 56.835938 215.355469 57.074219 215.597656 C 57.3125 215.835938 57.597656 216 57.925781 216.089844 L 66.210938 218.316406 C 66.535156 218.402344 66.859375 218.398438 67.183594 218.3125 C 67.511719 218.226562 67.792969 218.0625 68.03125 217.824219 L 77.269531 208.554688 C 77.507812 208.316406 77.667969 208.035156 77.757812 207.707031 C 77.84375 207.382812 77.84375 207.054688 77.757812 206.726562 Z M 75.875 199.609375 "/>
<path style=" stroke:none;fill-rule:nonzero;fill:rgb(0%,0%,0%);fill-opacity:1;" d="M 100.941406 218.375 C 100.417969 218.375 99.96875 218.191406 99.601562 217.820312 L 90.363281 208.550781 C 90.125 208.3125 89.960938 208.027344 89.875 207.703125 C 89.785156 207.375 89.785156 207.050781 89.871094 206.722656 L 91.769531 199.621094 L 67.507812 175.273438 L 60.429688 177.179688 C 60.101562 177.265625 59.777344 177.265625 59.453125 177.175781 C 59.128906 177.089844 58.84375 176.925781 58.605469 176.6875 L 49.367188 167.417969 C 49.128906 167.179688 48.96875 166.898438 48.878906 166.570312 C 48.792969 166.246094 48.792969 165.917969 48.878906 165.59375 L 51.097656 157.28125 C 51.140625 157.121094 51.203125 156.964844 51.289062 156.820312 C 51.371094 156.679688 51.472656 156.546875 51.589844 156.429688 C 51.707031 156.3125 51.835938 156.210938 51.980469 156.128906 C 52.125 156.042969 52.277344 155.980469 52.4375 155.9375 C 52.597656 155.894531 52.761719 155.871094 52.929688 155.871094 C 53.09375 155.871094 53.257812 155.894531 53.417969 155.9375 C 53.578125 155.980469 53.730469 156.042969 53.875 156.125 C 54.019531 156.210938 54.152344 156.3125 54.269531 156.429688 L 61.457031 163.640625 L 64.273438 160.8125 L 57.085938 153.601562 C 56.847656 153.363281 56.683594 153.078125 56.59375 152.75 C 56.507812 152.421875 56.507812 152.09375 56.59375 151.765625 C 56.683594 151.4375 56.84375 151.152344 57.085938 150.914062 C 57.324219 150.671875 57.609375 150.507812 57.933594 150.421875 L 66.21875 148.195312 C 66.546875 148.109375 66.871094 148.109375 67.195312 148.195312 C 67.519531 148.285156 67.804688 148.445312 68.042969 148.6875 L 77.28125 157.953125 C 77.519531 158.191406 77.679688 158.476562 77.769531 158.800781 C 77.855469 159.128906 77.855469 159.453125 77.769531 159.78125 L 75.871094 166.882812 L 100.132812 191.222656 L 107.214844 189.320312 C 107.539062 189.234375 107.863281 189.234375 108.191406 189.320312 C 108.515625 189.410156 108.796875 189.570312 109.035156 189.808594 L 118.273438 199.078125 C 118.511719 199.316406 118.675781 199.601562 118.761719 199.925781 C 118.847656 200.253906 118.847656 200.578125 118.761719 200.90625 L 116.542969 209.21875 C 116.5 209.378906 116.4375 209.53125 116.355469 209.675781 C 116.269531 209.820312 116.171875 209.949219 116.054688 210.070312 C 115.933594 210.1875 115.804688 210.289062 115.660156 210.371094 C 115.515625 210.453125 115.363281 210.515625 115.203125 210.558594 C 115.042969 210.605469 114.878906 210.625 114.714844 210.625 C 114.546875 210.625 114.382812 210.605469 114.222656 210.558594 C 114.0625 210.515625 113.910156 210.453125 113.765625 210.371094 C 113.621094 210.289062 113.492188 210.1875 113.375 210.070312 L 106.195312 202.871094 L 103.375 205.695312 L 110.566406 212.90625 C 110.804688 213.148438 110.96875 213.429688 111.054688 213.757812 C 111.144531 214.085938 111.144531 214.414062 111.058594 214.742188 C 110.96875 215.070312 110.804688 215.355469 110.566406 215.597656 C 110.328125 215.835938 110.042969 216 109.714844 216.089844 L 101.429688 218.316406 C 101.269531 218.355469 101.105469 218.378906 100.941406 218.375 Z M 93.8125 206.636719 L 101.507812 214.355469 L 105.566406 213.261719 L 99.359375 207.035156 C 99.179688 206.859375 99.042969 206.652344 98.949219 206.421875 C 98.851562 206.1875 98.804688 205.945312 98.804688 205.691406 C 98.804688 205.441406 98.851562 205.199219 98.949219 204.964844 C 99.042969 204.734375 99.179688 204.527344 99.359375 204.347656 L 104.855469 198.835938 C 105.035156 198.65625 105.238281 198.519531 105.46875 198.421875 C 105.703125 198.324219 105.945312 198.277344 106.195312 198.277344 C 106.445312 198.277344 106.6875 198.324219 106.921875 198.421875 C 107.152344 198.519531 107.359375 198.65625 107.535156 198.835938 L 113.742188 205.0625 L 114.832031 200.988281 L 107.136719 193.273438 L 100.054688 195.175781 C 99.730469 195.261719 99.40625 195.261719 99.078125 195.175781 C 98.753906 195.085938 98.472656 194.921875 98.234375 194.683594 L 72.421875 168.792969 C 72.183594 168.554688 72.019531 168.273438 71.933594 167.945312 C 71.84375 167.621094 71.84375 167.292969 71.929688 166.964844 L 73.828125 159.863281 L 66.132812 152.144531 L 62.074219 153.238281 L 68.28125 159.464844 C 68.460938 159.640625 68.597656 159.847656 68.695312 160.078125 C 68.789062 160.3125 68.839844 160.554688 68.839844 160.808594 C 68.839844 161.058594 68.789062 161.300781 68.695312 161.535156 C 68.597656 161.765625 68.460938 161.972656 68.28125 162.152344 L 62.785156 167.660156 C 62.609375 167.835938 62.402344 167.972656 62.171875 168.070312 C 61.9375 168.167969 61.699219 168.214844 61.445312 168.214844 C 61.195312 168.214844 60.953125 168.167969 60.722656 168.070312 C 60.488281 167.972656 60.285156 167.835938 60.105469 167.660156 L 53.898438 161.433594 L 52.820312 165.503906 L 60.515625 173.222656 L 67.59375 171.316406 C 67.921875 171.230469 68.246094 171.230469 68.570312 171.320312 C 68.894531 171.40625 69.179688 171.570312 69.417969 171.808594 L 95.222656 197.699219 C 95.457031 197.9375 95.621094 198.21875 95.710938 198.546875 C 95.796875 198.871094 95.796875 199.199219 95.710938 199.523438 Z M 93.8125 206.636719 "/>
</g>
</svg>
