<?xml version="1.0" encoding="UTF-8"?>
<svg xmlns="http://www.w3.org/2000/svg" xmlns:xlink="http://www.w3.org/1999/xlink" width="375pt" height="374.999991pt" viewBox="0 0 375 374.999991" version="1.2">
<defs>
<clipPath id="clip1">
  <path d="M 2.25 2.25 L 372.75 2.25 L 372.75 372.75 L 2.25 372.75 Z M 2.25 2.25 "/>
</clipPath>
</defs>
<g id="surface1">
<g clip-path="url(#clip1)" clip-rule="nonzero">
<path style=" stroke:none;fill-rule:evenodd;fill:rgb(25.878906%,42.749023%,28.62854%);fill-opacity:1;" d="M 56.96875 2.25 L 318.03125 2.25 C 348.125 2.25 372.75 26.875 372.75 56.96875 L 372.75 318.03125 C 372.75 348.125 348.125 372.75 318.03125 372.75 L 56.96875 372.75 C 26.875 372.75 2.25 348.125 2.25 318.03125 L 2.25 56.96875 C 2.25 26.875 26.875 2.25 56.96875 2.25 "/>
</g>
<path style=" stroke:none;fill-rule:nonzero;fill:rgb(0%,0%,0%);fill-opacity:1;" d="M 243.84375 133.488281 L 190.925781 133.488281 L 190.925781 182.925781 L 260.714844 182.925781 L 260.714844 150.359375 C 260.714844 145.722656 258.816406 141.503906 255.757812 138.445312 C 252.699219 135.386719 248.480469 133.488281 243.84375 133.488281 Z M 187.503906 126.648438 L 243.84375 126.648438 C 250.367188 126.648438 256.296875 129.316406 260.59375 133.609375 C 264.890625 137.90625 267.554688 143.835938 267.554688 150.359375 L 267.554688 186.347656 C 267.554688 188.234375 266.027344 189.765625 264.136719 189.765625 L 187.503906 189.765625 C 185.617188 189.765625 184.082031 188.234375 184.082031 186.347656 L 184.082031 130.066406 C 184.082031 128.179688 185.617188 126.648438 187.503906 126.648438 "/>
<path style=" stroke:none;fill-rule:nonzero;fill:rgb(0%,0%,0%);fill-opacity:1;" d="M 131.164062 126.648438 L 187.503906 126.648438 C 189.390625 126.648438 190.925781 128.179688 190.925781 130.066406 L 190.925781 186.347656 C 190.925781 188.234375 189.390625 189.765625 187.503906 189.765625 L 110.875 189.765625 C 108.984375 189.765625 107.453125 188.234375 107.453125 186.347656 L 107.453125 150.359375 C 107.453125 143.835938 110.121094 137.90625 114.414062 133.609375 C 118.714844 129.316406 124.640625 126.648438 131.164062 126.648438 Z M 184.082031 133.488281 L 131.164062 133.488281 C 126.527344 133.488281 122.3125 135.386719 119.253906 138.445312 C 116.191406 141.503906 114.292969 145.722656 114.292969 150.359375 L 114.292969 182.925781 L 184.082031 182.925781 L 184.082031 133.488281 "/>
<path style=" stroke:none;fill-rule:nonzero;fill:rgb(0%,0%,0%);fill-opacity:1;" d="M 113.277344 174.367188 C 114.613281 175.691406 114.621094 177.855469 113.289062 179.1875 C 111.964844 180.523438 109.804688 180.53125 108.46875 179.203125 C 108.417969 179.152344 91.949219 162.496094 86.175781 183.71875 C 85.738281 186.621094 79.867188 227.285156 96.082031 228.472656 L 96.109375 228.472656 C 122.761719 228.722656 149.875 228.859375 177.035156 228.886719 C 204.34375 228.914062 231.710938 228.832031 258.707031 228.636719 C 262.054688 228.613281 265.464844 228.589844 268.933594 228.558594 C 272.265625 228.535156 275.59375 228.503906 278.917969 228.472656 C 295.132812 227.285156 289.261719 186.621094 288.824219 183.71875 C 283.046875 162.496094 266.578125 179.152344 266.53125 179.203125 C 265.195312 180.53125 263.035156 180.523438 261.707031 179.1875 C 260.378906 177.855469 260.386719 175.691406 261.722656 174.367188 C 261.792969 174.292969 286.542969 149.246094 295.40625 181.917969 C 295.472656 182.113281 295.523438 182.320312 295.558594 182.535156 C 295.582031 182.683594 303.671875 233.507812 279.398438 235.285156 L 279.394531 235.277344 C 279.324219 235.28125 279.253906 235.28125 279.183594 235.285156 C 275.789062 235.316406 272.390625 235.34375 268.984375 235.375 C 265.636719 235.402344 262.21875 235.425781 258.730469 235.453125 C 231.734375 235.644531 204.359375 235.726562 177.035156 235.699219 C 149.832031 235.671875 122.699219 235.535156 96.054688 235.285156 C 95.90625 235.292969 95.757812 235.292969 95.601562 235.285156 C 71.328125 233.507812 79.417969 182.683594 79.441406 182.535156 L 79.445312 182.535156 C 79.464844 182.414062 79.492188 182.296875 79.519531 182.175781 C 88.320312 149.109375 113.207031 174.292969 113.277344 174.367188 "/>
<path style=" stroke:none;fill-rule:nonzero;fill:rgb(0%,0%,0%);fill-opacity:1;" d="M 267.070312 244.933594 C 267.070312 246.820312 265.535156 248.351562 263.648438 248.351562 C 261.761719 248.351562 260.226562 246.820312 260.226562 244.933594 L 260.226562 232.015625 C 260.226562 230.125 261.761719 228.59375 263.648438 228.59375 C 265.535156 228.59375 267.070312 230.125 267.070312 232.015625 L 267.070312 244.933594 "/>
<path style=" stroke:none;fill-rule:nonzero;fill:rgb(0%,0%,0%);fill-opacity:1;" d="M 114.769531 244.933594 C 114.769531 246.820312 113.238281 248.351562 111.351562 248.351562 C 109.460938 248.351562 107.929688 246.820312 107.929688 244.933594 L 107.929688 232.015625 C 107.929688 230.125 109.460938 228.59375 111.351562 228.59375 C 113.238281 228.59375 114.769531 230.125 114.769531 232.015625 L 114.769531 244.933594 "/>
<path style=" stroke:none;fill-rule:nonzero;fill:rgb(0%,0%,0%);fill-opacity:1;" d="M 144.292969 130.066406 L 144.292969 186.347656 L 137.453125 186.347656 L 137.453125 130.066406 L 144.292969 130.066406 "/>
<path style=" stroke:none;fill-rule:nonzero;fill:rgb(0%,0%,0%);fill-opacity:1;" d="M 167.605469 130.066406 L 167.605469 186.347656 L 160.765625 186.347656 L 160.765625 130.066406 L 167.605469 130.066406 "/>
<path style=" stroke:none;fill-rule:nonzero;fill:rgb(0%,0%,0%);fill-opacity:1;" d="M 190.917969 130.066406 L 190.917969 186.347656 L 184.078125 186.347656 L 184.078125 130.066406 L 190.917969 130.066406 "/>
<path style=" stroke:none;fill-rule:nonzero;fill:rgb(0%,0%,0%);fill-opacity:1;" d="M 214.234375 130.066406 L 214.234375 186.347656 L 207.394531 186.347656 L 207.394531 130.066406 L 214.234375 130.066406 "/>
<path style=" stroke:none;fill-rule:nonzero;fill:rgb(0%,0%,0%);fill-opacity:1;" d="M 237.546875 130.066406 L 237.546875 186.347656 L 230.707031 186.347656 L 230.707031 130.066406 L 237.546875 130.066406 "/>
</g>
</svg>
